<?xml version="1.0"?>
<svg xmlns="http://www.w3.org/2000/svg" height="512px" viewBox="0 0 60 60" width="512px"><g><g id="033---Cooky" transform="translate(0 -1)"><path id="Shape" d="m58.54 21.75c-.1691033-.4989384-.5702575-.8844906-1.0755082-1.0336788-.5052508-.1491882-1.051492-.0433788-1.4644918.2836788-1.9769465 1.4956421-4.7512865 1.316927-6.52-.42-.5348236-.5248697-1.3561802-.6234325-2-.24-1.7607746 1.0202543-3.9642248.8715757-5.5719788-.375971-1.6077539-1.2475468-2.2990124-3.3450358-1.7480212-5.304029.2380802-.8253322-.1968861-1.6952648-1-2-1.5717912-.6052672-2.7332231-1.9612129-3.0898478-3.60732795-.3566247-1.64611501.1394882-3.3611617 1.3198478-4.56267205.4189708-.40690993.5882123-1.00688276.4436461-1.5727563-.1445663-.56587353-.5808427-1.011152-1.1436461-1.1672437-11.5232806-2.62522997-23.5141142 1.75968496-30.62539061 11.1993659-7.11127642 9.4396809-8.01770579 22.1749059-2.3150812 32.526616 5.70262459 10.35171 16.95153601 16.3907133 28.73047181 15.4240181 18.59-1.5 32.17-20.31 26.06-39.15zm-26.22 37.16c-10.911434.8934868-21.3427484-4.6543848-26.70155133-14.2011613-5.35880296-9.5467765-4.66201191-21.3410836 1.7836105-30.1904713 6.44562243-8.84938766 17.45761453-13.13041891 28.18794083-10.9583674-1.3853798 1.693484-1.899241 3.93733076-1.3889275 6.06494571.5103136 2.12761499 1.9860963 3.89424079 3.9889275 4.77505429-.6222169 2.6725777.3745065 5.4622387 2.5494284 7.1354212 2.174922 1.6731825 5.12689 1.9212772 7.5505716.6345788 2.3470847 2.1399158 5.8407611 2.4313976 8.51.71 2.4154638 8.0928108 1.0628608 16.8428676-3.6834762 23.8285915s-12.3829933 11.4661825-20.7965238 12.2014085z" data-original="#000000" class="active-path" data-old_color="#000000" fill="#FFFFFF"/><path id="Shape" d="m41 5c-1.6568542 0-3 1.34314575-3 3s1.3431458 3 3 3 3-1.34314575 3-3-1.3431458-3-3-3zm0 4c-.5522847 0-1-.44771525-1-1s.4477153-1 1-1 1 .44771525 1 1-.4477153 1-1 1z" data-original="#000000" class="active-path" data-old_color="#000000" fill="#FFFFFF"/><path id="Shape" d="m42 16c0 1.6568542 1.3431458 3 3 3s3-1.3431458 3-3-1.3431458-3-3-3-3 1.3431458-3 3zm3-1c.5522847 0 1 .4477153 1 1s-.4477153 1-1 1-1-.4477153-1-1 .4477153-1 1-1z" data-original="#000000" class="active-path" data-old_color="#000000" fill="#FFFFFF"/><path id="Shape" d="m56 17c0-1.6568542-1.3431458-3-3-3s-3 1.3431458-3 3 1.3431458 3 3 3 3-1.3431458 3-3zm-4 0c0-.5522847.4477153-1 1-1s1 .4477153 1 1-.4477153 1-1 1-1-.4477153-1-1z" data-original="#000000" class="active-path" data-old_color="#000000" fill="#FFFFFF"/><path id="Shape" d="m43.5 43.62c-.8389786-.8025493-2.1610214-.8025493-3 0l-1.88 1.88c-.3981486.3976528-.6218678.9372834-.6218678 1.5s.2237192 1.1023472.6218678 1.5l1.88 1.88c.3976528.3981486.9372834.6218678 1.5.6218678s1.1023472-.2237192 1.5-.6218678l1.88-1.88c.3981486-.3976528.6218678-.9372834.6218678-1.5s-.2237192-1.1023472-.6218678-1.5zm.5 3.47c-2.43 2.33-1.92 1.91-2.09 1.91l-1.91-1.91c0-.25-.27.09 1.87-2.05h.18c2.19 2.15 1.95 1.8 1.95 2.05z" data-original="#000000" class="active-path" data-old_color="#000000" fill="#FFFFFF"/><path id="Shape" d="m28.5 48.62c-.8389786-.8025493-2.1610214-.8025493-3 0l-1.88 1.88c-.3981486.3976528-.6218678.9372834-.6218678 1.5s.2237192 1.1023472.6218678 1.5l1.88 1.88c.3976528.3981486.9372834.6218678 1.5.6218678s1.1023472-.2237192 1.5-.6218678l1.88-1.88c.3981486-.3976528.6218678-.9372834.6218678-1.5s-.2237192-1.1023472-.6218678-1.5zm.5 3.47c-2.43 2.33-1.92 1.91-2.09 1.91l-1.91-1.91c0-.25-.27.09 1.87-2.05h.18c2.19 2.15 1.95 1.8 1.95 2.05z" data-original="#000000" class="active-path" data-old_color="#000000" fill="#FFFFFF"/><path id="Shape" d="m23.38 36.5-1.88-1.88c-.8389786-.8025493-2.1610214-.8025493-3 0l-1.88 1.88c-.3981486.3976528-.6218678.9372834-.6218678 1.5s.2237192 1.1023472.6218678 1.5l1.88 1.88c.3976528.3981486.9372834.6218678 1.5.6218678s1.1023472-.2237192 1.5-.6218678l1.88-1.88c.3981486-.3976528.6218678-.9372834.6218678-1.5s-.2237192-1.1023472-.6218678-1.5zm-1.38 1.59c-2.43 2.33-1.92 1.91-2.09 1.91l-1.91-1.91c0-.25-.27.09 1.87-2.05h.18c2.19 2.15 1.95 1.8 1.95 2.05z" data-original="#000000" class="active-path" data-old_color="#000000" fill="#FFFFFF"/><path id="Shape" d="m39.5 34.38 1.88-1.88c.3981486-.3976528.6218678-.9372834.6218678-1.5s-.2237192-1.1023472-.6218678-1.5l-1.88-1.88c-.8410105-.7974699-2.1589895-.7974699-3 0l-1.88 1.88c-.3981486.3976528-.6218678.9372834-.6218678 1.5s.2237192 1.1023472.6218678 1.5l1.88 1.88c.3976528.3981486.9372834.6218678 1.5.6218678s1.1023472-.2237192 1.5-.6218678zm-3.5-3.47 1.91-1.91c.25 0-.09-.27 2.05 1.87 0 .25.28-.09-2 2.09-.0288639.011676-.0611361.011676-.09 0-2.11-2.15-1.87-1.8-1.87-2.05z" data-original="#000000" class="active-path" data-old_color="#000000" fill="#FFFFFF"/><path id="Shape" d="m21.5 22.38c.3976528.3981486.9372834.6218678 1.5.6218678s1.1023472-.2237192 1.5-.6218678l1.88-1.88c.3981486-.3976528.6218678-.9372834.6218678-1.5s-.2237192-1.1023472-.6218678-1.5l-1.88-1.88c-.8389786-.8025493-2.1610214-.8025493-3 0l-1.88 1.88c-.3981486.3976528-.6218678.9372834-.6218678 1.5s.2237192 1.1023472.6218678 1.5zm-.5-3.47 1.91-1.91c.25 0-.08-.26 2.05 1.87 0 .25.28-.09-2 2.09-.0288639.011676-.0611361.011676-.09 0-2.11-2.15-1.87-1.8-1.87-2.05z" data-original="#000000" class="active-path" data-old_color="#000000" fill="#FFFFFF"/><circle id="Oval" cx="11" cy="29" r="1" data-original="#000000" class="active-path" data-old_color="#000000" fill="#FFFFFF"/><circle id="Oval" cx="14" cy="45" r="1" data-original="#000000" class="active-path" data-old_color="#000000" fill="#FFFFFF"/><circle id="Oval" cx="31" cy="42" r="1" data-original="#000000" class="active-path" data-old_color="#000000" fill="#FFFFFF"/><circle id="Oval" cx="36" cy="52" r="1" data-original="#000000" class="active-path" data-old_color="#000000" fill="#FFFFFF"/><circle id="Oval" cx="48" cy="37" r="1" data-original="#000000" class="active-path" data-old_color="#000000" fill="#FFFFFF"/><circle id="Oval" cx="26" cy="30" r="1" data-original="#000000" class="active-path" data-old_color="#000000" fill="#FFFFFF"/><circle id="Oval" cx="32" cy="16" r="1" data-original="#000000" class="active-path" data-old_color="#000000" fill="#FFFFFF"/><circle id="Oval" cx="16" cy="14" r="1" data-original="#000000" class="active-path" data-old_color="#000000" fill="#FFFFFF"/></g></g> </svg>
